<svg xmlns="http://www.w3.org/2000/svg" width="2354" height="622" viewBox="0 0 2354 622">
  <defs>
    <style>
      .cls-1 {
        fill-rule: evenodd;
      }

      .cls-2 {
        fill: #e52718;
      }
    </style>
  </defs>
  <path id="Eltronic_logo_1" data-name="Eltronic logo 1" class="cls-1" d="M2286.9,209.356c-14.84-19.767-39.31-30.784-68.69-30.784-41.56,0-72.07,33.95-72.07,80.76,0,46.067,30.3,80.76,72.07,80.76,27.34,0,51.99-12.34,67.43-32.1L2354,371.941c-31.04,38.051-78.92,61.452-136.29,61.452-104.72,0-180.68-74.774-180.68-174.061,0-100.889,76.48-174.06,180.68-174.06,60.37,0,106.61,23.829,136.3,60.455ZM2048.04,522.68h1l40.04,64.971V522.68h18.02v97.314h-19.02l-40.04-63.461v63.461h-18.02V522.68h18.02Zm-74.07,97.314h-20.02V538.732h-29.03V522.68H2003v16.052h-29.03v81.262Zm-92.09-514.658h106.1V424.364h-106.1V105.336Zm18.01,448.494c0,11.028-9.53,20.372-25.88,23.707,3.87,1.678,8.07,4.364,12.87,10.437,6.57,8.3,21.02,32.02,21.02,32.02h-23.02s-18.28-27.83-24.02-35.019-17.02-6-17.02-6v-0.114h-4.01v41.133h-19.01V522.68h45.52c24.61,0,33.55,11.207,33.55,25.031v6.119Zm-19.8-5.95c0-6.9-8.38-9.025-22-9.148h-18.26v25.081h18.33c13.57-.122,21.93-2.14,21.93-9.149V547.88ZM1707.7,236.205V226.143s-0.12-27.446-18.01-39.242c-16.7-11.006-62.3-19.944-100.1,22.3V424.364H1484.48V93.3h105.11v38.841c10.62-11.5,49.42-47.871,115.11-47.871,78.02,0,98.1,52.323,98.1,52.323s11.01,23.826,11.01,61.378v226.4H1707.7V236.205ZM1509.51,522.68h18.02v97.314h-19.02l-40.04-63.461v63.461h-18.02V522.68h19.02l40.04,64.971V522.68Zm-255.76-89.287c-104.71,0-180.67-74.774-180.67-174.061,0-100.889,76.48-174.06,180.67-174.06,106.07,0,180.68,74.492,180.68,174.06C1434.43,358.78,1356.2,433.393,1253.75,433.393Zm0.5-254.821c-41.56,0-72.07,33.95-72.07,80.76,0,46.067,30.3,80.76,72.07,80.76,40.87,0,72.08-34.618,72.08-80.76C1326.33,213.135,1296.56,178.572,1254.25,178.572Zm-144.14,342.1h4.01c19.11,0,31.89,11.938,36.79,28.775l-18.83,4.943c-2.27-9.764-8.32-16.663-19.47-16.663h-1c-14.65,0-24.52,11.9-24.52,26.585v14.045c0,14.683,9.87,26.586,24.52,26.586h1c12.61,0,18.7-8.821,20.16-20.635l18.87,6.146c-4.26,18.285-17.38,31.544-37.52,31.544h-4.01c-24.88,0-43.04-20.212-43.04-45.145V565.819C1067.07,540.886,1085.23,520.674,1110.11,520.674ZM998,189.608c-28.661,9.045-40.04,25.08-40.04,25.08V424.364h-105.1V93.3h105.1v42.135c47.409-52.242,103.1-50.161,103.1-50.161V186.6S1026.66,180.562,998,189.608ZM887.892,522.68V522.7c24.278,0.486,39.038,18.522,39.038,43.116v11.036c0,24.594-14.76,42.63-39.038,43.116v0.023H845.85V522.68h42.042ZM865.87,603.942h18.518c17.091,0,22.522-10.9,22.522-25.583V564.314c0-14.683-7.872-25.582-22.522-25.582H865.87v65.21ZM771.777,622h-4a45.1,45.1,0,0,1-45.045-45.145V565.819a45.1,45.1,0,0,1,45.045-45.145h4a45.1,45.1,0,0,1,45.044,45.145v11.036A45.1,45.1,0,0,1,771.777,622ZM796.8,564.314a26.555,26.555,0,0,0-26.526-26.585h-1a26.555,26.555,0,0,0-26.526,26.585v14.045a26.556,26.556,0,0,0,26.526,26.586h1A26.556,26.556,0,0,0,796.8,578.359V564.314ZM731.44,308.7c0,17.906,13.669,31.172,29.157,31.172s30.163-8.044,30.163-8.044v91.506c-16.74,7.9-57.853,10.056-61.331,10.056s-52.727-1.182-78.422-26.145-25.136-73.406-25.136-73.406V186.024l-54.293-1V93.512h54.293V54.3L731.44,1V93.512H798.8v92.512H731.44V308.7ZM583.59,554.833c0,11.029-4.528,23.382-20.874,26.717-3.97.923-30.176,1.438-30.176,1.438v-0.114h-4v37.12H509.517V522.68h45.524c19.023,0,28.549,13.676,28.549,26.035v6.118Zm-19.807-4.946c0-3.227-3.748-11.155-16.987-11.155h-18.26v28.09h18.321c13.577-.121,16.926-8.163,16.926-11.154v-5.781ZM417.426,0h105.1V424.364h-105.1V0Zm8.008,553.833c0,11.028-9.534,20.372-25.88,23.707,3.87,1.678,8.065,4.364,12.867,10.437,6.566,8.3,21.02,32.02,21.02,32.02H410.419s-18.28-27.83-24.024-35.019-17.017-6-17.017-6v-0.114h-4v41.133H346.355V522.68h45.524c24.613,0,33.555,11.207,33.555,25.031v6.119Zm-19.807-5.95c0-6.9-8.38-9.025-21.993-9.148h-18.26v25.081H383.7c13.577-.122,21.932-2.14,21.932-9.149V547.88ZM9.021,0H355.364v99.32H127.138v62.2h212.21V249.8H127.138v75.242H355.364v99.32H9.021V0ZM45.057,560.8L68.08,522.68H90.1L55.067,578.861V621H35.047V578.861L0.012,522.68H22.034Zm110.109-40.129h4a45.1,45.1,0,0,1,45.044,45.145v11.036A45.1,45.1,0,0,1,159.17,622h-4a45.1,45.1,0,0,1-45.045-45.145V565.819A45.1,45.1,0,0,1,155.166,520.674Zm-25.025,57.685a26.556,26.556,0,0,0,26.526,26.586h1a26.556,26.556,0,0,0,26.526-26.586V564.314a26.555,26.555,0,0,0-26.526-26.585h-1a26.555,26.555,0,0,0-26.526,26.585v14.045Zm123.122,3.512h-0.028l0.028,5.016A18.88,18.88,0,0,0,271.929,605.5h0.706A18.88,18.88,0,0,0,291.3,586.887l0.027-5.016H291.3V522.68H311.32v64.207c0,19.749-12.011,35.113-37.377,35.113h-3.322c-25.574,0-37.378-15.364-37.378-35.113V522.68h20.02v59.191Zm406.4-59.191h0.48c24.613,0,33.554,11.207,33.554,25.031v6.119c0,11.028-9.533,20.372-25.879,23.707,3.87,1.678,8.065,4.364,12.866,10.437,6.567,8.3,21.021,32.02,21.021,32.02H678.684s-18.279-27.83-24.023-35.019-17.017-6-17.017-6v-0.114h-4v41.133H614.621V522.68h45.044ZM633.64,563.813h18.321c13.577-.122,21.931-2.14,21.931-9.149V547.88c0-6.9-8.379-9.025-21.992-9.148H633.64v25.081Zm344.341,18.058h-0.028l0.028,5.016A18.88,18.88,0,0,0,996.647,605.5h0.706a18.883,18.883,0,0,0,18.667-18.608l0.03-5.016h-0.03V522.68h20.02v64.207c0,19.749-12.01,35.113-37.379,35.113h-3.323c-25.573,0-37.377-15.364-37.377-35.113V522.68h20.02v59.191Zm275.269-43.139h-29.03v81.262H1204.2V538.732h-29.02V522.68h78.07v16.052Zm45.05,81.262h-20.02V522.68h20.02v97.314Zm74.07-99.32h4.01a45.1,45.1,0,0,1,45.04,45.145v11.036A45.1,45.1,0,0,1,1376.38,622h-4.01a45.089,45.089,0,0,1-45.04-45.145V565.819A45.089,45.089,0,0,1,1372.37,520.674Zm-25.02,57.685a26.551,26.551,0,0,0,26.52,26.586h1a26.559,26.559,0,0,0,26.53-26.586V564.314a26.559,26.559,0,0,0-26.53-26.585h-1a26.55,26.55,0,0,0-26.52,26.585v14.045Zm312.31-55.679h0.48c19.02,0,28.54,13.676,28.54,26.035v6.118c0,11.029-4.52,23.382-20.87,26.717-3.97.923-30.18,1.438-30.18,1.438v-0.114h-4v37.12h-19.02V522.68h45.05Zm-26.03,44.142h18.32c13.58-.121,16.93-8.163,16.93-11.154v-5.781c0-3.227-3.75-11.155-16.99-11.155h-18.26v28.09Zm113.11-44.142h10.01l38.04,97.314h-21.02l-8.01-22.072h-38.04l-8,22.072h-21.03l38.04-97.314h10.01Zm0,59.191h13.02l-13.02-36.116-13.01,36.116h13.01Zm467.47-43.139h-53.06V560.8h49.05v16.052h-49.05v27.087h54.06v16.052h-73.08V522.68h72.08v16.052Zm77.07-16.052h0.48c24.61,0,33.56,11.207,33.56,25.031v6.119c0,11.028-9.54,20.372-25.88,23.707,3.87,1.678,8.06,4.364,12.86,10.437,6.57,8.3,21.02,32.02,21.02,32.02H2310.3s-18.28-27.83-24.02-35.019-17.02-6-17.02-6v-0.114h-4v41.133h-19.02V522.68h45.04Zm-26.02,41.133h18.32c13.57-.122,21.93-2.14,21.93-9.149V547.88c0-6.9-8.38-9.025-21.99-9.148h-18.26v25.081Z"/>
  <rect class="cls-2" x="1882" width="106" height="72"/>
</svg>
