<svg id="ELTRONIC" xmlns="http://www.w3.org/2000/svg" width="1910" height="253" viewBox="0 0 1910 253">
  <defs>
    <style>
      .cls-1, .cls-2 {
        fill-rule: evenodd;
      }

      .cls-2 {
        fill: #e52718;
      }
    </style>
  </defs>
  <path id="G" class="cls-1" d="M1141.87,99.328c0,59.9,44.64,99.646,99.64,99.646,32.55,0,59.04-13.535,77.47-33.983V94.432h-90.43v25.344h61.63v34.559c-9.21,8.64-27.36,19.008-48.67,19.008-40.03,0-69.98-31.1-69.98-74.015,0-43.2,29.95-73.726,69.98-73.726,22.47,0,41.76,11.232,52.71,25.919l23.32-13.536c-16.12-21.6-40.03-38.015-76.03-38.015C1186.51-.03,1141.87,39.426,1141.87,99.328Z"/>
  <path id="r" class="cls-1" d="M1351.99,195.23h27.45V92.753c6.41-10.98,25.01-21.349,38.74-21.349a43.115,43.115,0,0,1,9.45.915V44.564c-19.52,0-36.9,11.285-48.19,25.924V47.919h-27.45V195.23Z"/>
  <path id="O" class="cls-1" d="M1435.83,120.99c0,44.92,30.55,77.876,73.88,77.876s73.88-32.956,73.88-77.876-30.55-77.877-73.88-77.877S1435.83,76.07,1435.83,120.99Zm121.76,0c0,30.925-18.85,54.4-47.88,54.4-29.25,0-47.88-23.475-47.88-54.4,0-31.151,18.63-54.4,47.88-54.4C1538.74,66.589,1557.59,89.839,1557.59,120.99Z"/>
  <path id="u" class="cls-1" d="M1709.08,195.23h27.72V46.467h-27.72V153.343c-8.32,11.088-24.03,20.944-41.27,20.944-19.1,0-31.42-7.392-31.42-32.032V46.467h-27.72V151.5c0,31.416,15.71,47.431,47.43,47.431,22.79,0,41.58-11.7,52.98-24.023V195.23Z"/>
  <path id="p" class="cls-1" d="M1794.62,252.9V174.671c12.01,16.323,29.26,25.255,48.66,25.255,38.81,0,66.22-29.567,66.22-78.231s-27.41-77.924-66.22-77.924a60.614,60.614,0,0,0-48.66,24.948V47.467H1766.9V252.9h27.72ZM1880.55,121.7c0,31.108-16.94,53.592-44.66,53.592-16.94,0-33.88-10.164-41.27-21.868V90.279c7.39-12.012,24.33-21.868,41.27-21.868C1863.61,68.411,1880.55,90.895,1880.55,121.7Z"/>
  <path id="c" class="cls-1" d="M1030.2,98.46c-6.71-8.919-17.78-13.889-31.068-13.889-18.8,0-32.595,15.318-32.595,36.437,0,20.785,13.7,36.438,32.595,36.438a38.587,38.587,0,0,0,30.5-14.481l30.92,28.851c-14.04,17.168-35.7,27.726-61.644,27.726-47.36,0-81.715-33.737-81.715-78.534,0-45.519,34.591-78.533,81.715-78.533,27.3,0,48.214,10.752,61.644,27.277Z"/>
  <g id="i">
    <path id="l" class="cls-1" d="M847.021,51.528h47.988v143.94H847.021V51.528Z"/>
    <path id="i_dot" data-name="i dot" class="cls-2" d="M847.021,4h47.988V36.59H847.021V4Z"/>
  </g>
  <path id="n" class="cls-1" d="M768.25,195.468V106.034s-0.058-12.384-8.149-17.706c-7.549-4.966-28.175-9-45.271,10.061v97.078H667.3V46.1H714.83V63.62c4.806-5.188,22.354-21.6,52.062-21.6,35.284,0,44.365,23.607,44.365,23.607s4.98,10.75,4.98,27.693V195.468H768.25Z"/>
  <path id="o-2" data-name="o" class="cls-1" d="M562.946,199.542c-47.361,0-81.715-33.737-81.715-78.534,0-45.519,34.591-78.533,81.715-78.533,47.971,0,81.714,33.61,81.714,78.533C644.66,165.878,609.278,199.542,562.946,199.542Zm0.226-114.971c-18.8,0-32.6,15.318-32.6,36.437,0,20.785,13.7,36.438,32.6,36.438,18.482,0,32.6-15.619,32.6-36.438C595.767,100.165,582.307,84.571,563.172,84.571Z"/>
  <path id="r-2" data-name="r" class="cls-1" d="M447.278,89.55c-12.962,4.081-18.108,11.316-18.108,11.316v94.6H381.635V46.1H429.17V65.107C450.612,41.536,475.8,42.475,475.8,42.475V88.192S460.24,85.469,447.278,89.55Z"/>
  <path id="t" class="cls-1" d="M326.723,4.453L278.978,28.5V46.193H254.423V87.479l24.555,0.454v66.693s-0.253,21.857,11.368,33.12,33.895,11.8,35.467,11.8,20.167-.974,27.738-4.537V153.719s-6.637,3.629-13.642,3.629-13.186-5.985-13.186-14.064V87.933h30.466V46.193H326.723V4.453Z"/>
  <path id="l-2" data-name="l" class="cls-1" d="M184.706,4H232.24V195.468H184.706V4Z"/>
  <path id="E" class="cls-1" d="M0,4H156.638V48.812H53.42V76.876h95.974v39.832H53.42v33.949H156.638v44.811H0V4Z"/>
</svg>
