<svg id="Engineering" xmlns="http://www.w3.org/2000/svg" xmlns:xlink="http://www.w3.org/1999/xlink" width="1100" height="591" viewBox="0 0 1100 591">
  <defs>
    <style>
      .cls-1 {
        fill: #575654;
      }

      .cls-1, .cls-2, .cls-3 {
        fill-rule: evenodd;
      }

      .cls-2 {
        fill: #1e1e1c;
      }

      .cls-3 {
        fill: url(#linear-gradient);
      }
    </style>
    <linearGradient id="linear-gradient" x1="549.5" y1="294" x2="549.5" gradientUnits="userSpaceOnUse">
      <stop offset="0" stop-color="#134580"/>
      <stop offset="1" stop-color="#2baae1"/>
    </linearGradient>
  </defs>
  <path id="G" class="cls-1" d="M1074,577h20a6.053,6.053,0,0,0,1-.1V584a3,3,0,0,1-3,3h-22v4h24a6,6,0,0,0,6-6V545a6,6,0,0,0-6-6h-20a6,6,0,0,0-6,6v26A6,6,0,0,0,1074,577Zm-2-31a3,3,0,0,1,3-3h17a3,3,0,0,1,3,3v27h-20a3,3,0,0,1-3-3V546Z"/>
  <path id="N_" data-name="N " class="cls-1" d="M1020,545a6,6,0,0,1,6-6h20a6,6,0,0,1,6,6v32h-4V546a3,3,0,0,0-3-3h-18a3,3,0,0,0-3,3v31h-4V545Z"/>
  <path id="I" class="cls-1" d="M1003,577V539H991v4h8v34h4Zm-4-49h4v4h-4v-4Z"/>
  <path id="R" class="cls-1" d="M978,543H962a3,3,0,0,0-3,3v31h-4V545a6,6,0,0,1,6-6h17v4Z"/>
  <path id="E" class="cls-1" d="M933,563H913a5.988,5.988,0,0,1-1-.1V570a3,3,0,0,0,3,3h23v4H913a6,6,0,0,1-6-6V545a6,6,0,0,1,6-6h20a6,6,0,0,1,6,6v12A6,6,0,0,1,933,563Zm2-17a3,3,0,0,0-3-3H915a3,3,0,0,0-3,3v13h20a3,3,0,0,0,3-3V546Z"/>
  <path id="E-2" data-name="E" class="cls-1" d="M885,563H865a5.988,5.988,0,0,1-1-.1V570a3,3,0,0,0,3,3h23v4H865a6,6,0,0,1-6-6V545a6,6,0,0,1,6-6h20a6,6,0,0,1,6,6v12A6,6,0,0,1,885,563Zm2-17a3,3,0,0,0-3-3H867a3,3,0,0,0-3,3v13h20a3,3,0,0,0,3-3V546Z"/>
  <path id="N" class="cls-1" d="M811,545a6,6,0,0,1,6-6h20a6,6,0,0,1,6,6v32h-4V546a3,3,0,0,0-3-3H818a3,3,0,0,0-3,3v31h-4V545Z"/>
  <path id="I-2" data-name="I" class="cls-1" d="M795,577V539H783v4h8v34h4Zm-4-49h4v4h-4v-4Z"/>
  <path id="G-2" data-name="G" class="cls-1" d="M742,577h20a5.988,5.988,0,0,0,1-.1V584a3,3,0,0,1-3,3H738v4h24a6,6,0,0,0,6-6V545a6,6,0,0,0-6-6H742a6,6,0,0,0-6,6v26A6,6,0,0,0,742,577Zm-2-31a3,3,0,0,1,3-3h17a3,3,0,0,1,3,3v27H743a3,3,0,0,1-3-3V546Z"/>
  <path id="N-2" data-name="N" class="cls-1" d="M688,545a6,6,0,0,1,6-6h20a6,6,0,0,1,6,6v32h-4V546a3,3,0,0,0-3-3H695a3,3,0,0,0-3,3v31h-4V545Z"/>
  <path id="E-3" data-name="E" class="cls-1" d="M672,528v4H646v18h22v4H646v19h26v4H641V528h31Z"/>
  <path id="E-4" data-name="E" class="cls-1" d="M597,563H577a5.988,5.988,0,0,1-1-.1V570a3,3,0,0,0,3,3h23v4H577a6,6,0,0,1-6-6V545a6,6,0,0,1,6-6h20a6,6,0,0,1,6,6v12A6,6,0,0,1,597,563Zm2-17a3,3,0,0,0-3-3H579a3,3,0,0,0-3,3v13h20a3,3,0,0,0,3-3V546Z"/>
  <path id="N-3" data-name="N" class="cls-1" d="M523,545a6,6,0,0,1,6-6h20a6,6,0,0,1,6,6v32h-4V546a3,3,0,0,0-3-3H530a3,3,0,0,0-3,3v31h-4V545Z"/>
  <path id="I-3" data-name="I" class="cls-1" d="M506,577V539H494v4h8v34h4Zm-4-49h4v4h-4v-4Z"/>
  <path id="H" class="cls-1" d="M448,551V522h4v17.349a5.971,5.971,0,0,1,2-.349h20a6,6,0,0,1,6,6v32h-4V546a3,3,0,0,0-3-3H455a3,3,0,0,0-3,3v31h-4V551Z"/>
  <path id="C" class="cls-1" d="M411,573a3,3,0,0,1-3-3V546a3,3,0,0,1,3-3h21v-4H410a6,6,0,0,0-6,6v26a6,6,0,0,0,6,6h22v-4H411Z"/>
  <path id="A" class="cls-1" d="M362,553h20a5.988,5.988,0,0,1,1,.1V546a3,3,0,0,0-3-3H357v-4h25a6,6,0,0,1,6,6v26a6,6,0,0,1-6,6H362a6,6,0,0,1-6-6V559A6,6,0,0,1,362,553Zm-2,17a3,3,0,0,0,3,3h17a3,3,0,0,0,3-3V557H363a3,3,0,0,0-3,3v10Z"/>
  <path id="M" class="cls-1" d="M339,577V527h-7l-13.494,42.493L304,527h-7v50h5V534l14,43h5l13-43v43h5Z"/>
  <path id="O" class="cls-1" d="M252,577H232a6,6,0,0,1-6-6V545a6,6,0,0,1,6-6h20a6,6,0,0,1,6,6v26A6,6,0,0,1,252,577Zm2-31a3,3,0,0,0-3-3H233a3,3,0,0,0-3,3v24a3,3,0,0,0,3,3h18a3,3,0,0,0,3-3V546Z"/>
  <path id="C-2" data-name="C" class="cls-1" d="M190,573a3,3,0,0,1-3-3V546a3,3,0,0,1,3-3h20v-4H189a6,6,0,0,0-6,6v26a6,6,0,0,0,6,6h21v-4H190Z"/>
  <path id="I-4" data-name="I" class="cls-1" d="M166,577V539H154v4h8v34h4Zm-4-49h4v4h-4v-4Z"/>
  <path id="D" class="cls-1" d="M133,577H113a6,6,0,0,1-6-6V545a6,6,0,0,1,6-6h20a5.971,5.971,0,0,1,2,.349V522h4v49A6,6,0,0,1,133,577Zm2-31a3,3,0,0,0-3-3H114a3,3,0,0,0-3,3v24a3,3,0,0,0,3,3h18a3,3,0,0,0,3-3V546Z"/>
  <path id="E-5" data-name="E" class="cls-1" d="M85,563H65a5.992,5.992,0,0,1-1-.1V570a3,3,0,0,0,3,3H90v4H65a6,6,0,0,1-6-6V545a6,6,0,0,1,6-6H85a6,6,0,0,1,6,6v12A6,6,0,0,1,85,563Zm2-17a3,3,0,0,0-3-3H67a3,3,0,0,0-3,3v13H84a3,3,0,0,0,3-3V546Z"/>
  <path id="M-2" data-name="M" class="cls-1" d="M42,577V527H35L21.506,569.493,7,527H0v50H5V534l14,43h5l13-43v43h5Z"/>
  <path id="C-3" data-name="C" class="cls-2" d="M1035,456a7,7,0,0,1-7-7V376a7,7,0,0,1,7-7h63V356h-68a16,16,0,0,0-16,16v81a16,16,0,0,0,16,16h68V456h-63Z"/>
  <path id="I-5" data-name="I" class="cls-2" d="M975,469V369H952V356h37V469H975Zm0-149h14v13H975V320Z"/>
  <path id="D-2" data-name="D" class="cls-2" d="M921,469H857a16,16,0,0,1-16-16V372a16,16,0,0,1,16-16h64a16.094,16.094,0,0,1,2,.138V304h14V453A16,16,0,0,1,921,469Zm2-93a7,7,0,0,0-7-7H862a7,7,0,0,0-7,7v73a7,7,0,0,0,7,7h54a7,7,0,0,0,7-7V376Z"/>
  <path id="R-2" data-name="R" class="cls-2" d="M774,356a16,16,0,0,0-16,16v97h14V376a7,7,0,0,1,7-7h49V356H774Z"/>
  <path id="O-2" data-name="O" class="cls-2" d="M718,469H654a16,16,0,0,1-16-16V372a16,16,0,0,1,16-16h64a16,16,0,0,1,16,16v81A16,16,0,0,1,718,469Zm2-93a7,7,0,0,0-7-7H659a7,7,0,0,0-7,7v73a7,7,0,0,0,7,7h54a7,7,0,0,0,7-7V376Z"/>
  <path id="N-4" data-name="N" class="cls-2" d="M600,469V376a8,8,0,0,0-8-8H540a8,8,0,0,0-8,8v93H518V371a15,15,0,0,1,15-15h66a15,15,0,0,1,15,15v98H600Z"/>
  <path id="E-6" data-name="E" class="cls-2" d="M442,423.779H387v14.734a5.948,5.948,0,0,0,6,5.894h60V469H379c-9.389,0-17-9.476-17-18.7V371.717A15.86,15.86,0,0,1,378,356h64a15.86,15.86,0,0,1,16,15.717v36.345A15.86,15.86,0,0,1,442,423.779Zm-9-42.239a2.973,2.973,0,0,0-3-2.947H390a2.973,2.973,0,0,0-3,2.947V400.2h43a2.974,2.974,0,0,0,3-2.947V381.54Z"/>
  <path id="M-3" data-name="M" class="cls-2" d="M315,469V383.5a4.957,4.957,0,0,0-5-4.911H278a4.957,4.957,0,0,0-5,4.911V469H249V383.5a4.957,4.957,0,0,0-5-4.911H212a4.957,4.957,0,0,0-5,4.911V469H182V370.735A14.869,14.869,0,0,1,197,356h54a9.913,9.913,0,0,1,10,9.823A9.913,9.913,0,0,1,271,356h54a14.869,14.869,0,0,1,15,14.735V469H315Z"/>
  <path id="M-4" data-name="M" class="cls-2" d="M134,469V383.5a4.957,4.957,0,0,0-5-4.911H97a4.956,4.956,0,0,0-5,4.911V469H68V383.5a4.956,4.956,0,0,0-5-4.911H31a4.956,4.956,0,0,0-5,4.911V469H1V370.735A14.869,14.869,0,0,1,16,356H70a9.913,9.913,0,0,1,10,9.823A9.913,9.913,0,0,1,90,356h54a14.869,14.869,0,0,1,15,14.735V469H134Z"/>
  <path id="TOP_3_Ms" data-name="TOP 3 Ms" class="cls-3" d="M718.006,163.073l-15,26.014-78.822-45.56a9.987,9.987,0,0,0-13.653,3.658l-10.007,17.351L688,215.1l-15.5,26.881-87.48-50.564-10.006,17.351a10.013,10.013,0,0,0,3.662,13.667L657.5,268l-15,26.014-78.833-45.566A39.843,39.843,0,0,1,549.322,234.3a39.809,39.809,0,0,1-14.29,14.117l-78.677,45.6-14.972-26.032,78.666-45.591A10.034,10.034,0,0,0,523.7,208.71l-9.987-17.363-87.307,50.6-15.471-26.9,87.307-50.6-9.986-17.363a9.956,9.956,0,0,0-13.627-3.661l-78.667,45.592-14.972-26.032,78.677-45.6a39.612,39.612,0,0,1,20.3-5.365A39.808,39.808,0,0,1,474,91V0h30V91a10,10,0,0,0,10,10h20V0h31V101h20a10,10,0,0,0,10-10V0h30V91a39.8,39.8,0,0,1-6.05,21.145,39.765,39.765,0,0,1,20.223,5.362ZM514,131c-0.153,0-.3-0.01-0.456-0.012,0.212,0.346.43,0.687,0.634,1.041l35.176,61.159,35.2-61.048c0.225-.39.465-0.767,0.7-1.147-0.087,0-.173.007-0.26,0.007H514Z"/>
</svg>
