<svg id="FUELTECH" xmlns="http://www.w3.org/2000/svg" width="1200.145" height="251.346" viewBox="0 0 8017 1679">
  <defs>
    <style>
      .cls-1 {
        fill: #49748c;
      }

      .cls-1, .cls-2, .cls-3 {
        fill-rule: evenodd;
      }

      .cls-2 {
        fill: #12304e;
      }

      .cls-3 {
        fill: #e52718;
      }
    </style>
  </defs>
  <g id="H">
    <path id="H_1" data-name="H 1" class="cls-1" d="M8017,835v834H7802V1321H7436v348H7222V835h214v320h366V835h215Z"/>
  </g>
  <g id="C">
    <path id="C-2" data-name="C" class="cls-1" d="M6448.2,1457.12c47.44,44.95,157.94,45.98,157.94,45.98h283.87V1670H6506.17a498.272,498.272,0,0,1-105.71-14.44c-47.01-11.81-91.38-32.69-134.2-75.51-37.5-37.49-61.74-96.96-74.92-155.27-20.3-89.75-17.14-167.78-17.14-167.78s-3.16-87.03,17.14-176.78c13.18-58.31,37.42-117.777,74.92-155.271,42.82-42.818,87.19-63.7,134.2-75.506A498.262,498.262,0,0,1,6506.17,835h371.84v166.9H6606.14s-110.5,1.03-157.94,45.98c-25.99,24.61-41.37,61.09-46.04,93.13-9.76,66.87-8.04,115.99-8.04,115.99s-1.72,40.12,8.04,106.99C6406.83,1396.03,6422.21,1432.51,6448.2,1457.12Z"/>
  </g>
  <g id="E">
    <path id="soft_E_1" data-name="soft E 1" class="cls-1" d="M5847.09,835V996.994H5413.1s-27.3.3-38.99,12-12,39-12,39v121h474.98v154.99H5362.11l-0.03,133s0.9,25.87,13.03,38,37.99,12.99,37.99,12.99h438.99v161H5265.11s-51.01,1.98-85-32-31.99-85-31.99-85V952s0-53,31.99-85,85-32,85-32h581.98Z"/>
  </g>
  <g id="T">
    <path id="clean_T_1" data-name="clean T 1" class="cls-1" d="M4533,1669H4319V1002H4009V835h834v167H4533v667Z"/>
  </g>
  <g id="L">
    <path id="soft_E_1-2" data-name="soft E 1" class="cls-1" d="M3428.02,1047.99v275.99l-0.03,128s0.91,25.87,13.03,38,38,12.99,38,12.99H3913v166H3331.03s-51.02,1.98-85-32-32-85-32-85V835H3428Z"/>
  </g>
  <g id="E-2" data-name="E">
    <path id="soft_E_1-3" data-name="soft E 1" class="cls-1" d="M2862,835V996.994H2428.02s-27.3.3-39,12-12,39-12,39v121H2852v154.99H2377.02l-0.03,133s0.91,25.87,13.03,38,38,12.99,38,12.99H2867v161H2280.03s-51.02,1.98-85-32-32-85-32-85V952s0-53,32-85,85-32,85-32H2862Z"/>
  </g>
  <g id="U">
    <path id="U-2" data-name="U" class="cls-1" d="M1779.49,1464.68c-11.83,53.56-35.71,91.38-72.54,130.24-85.79,90.51-302.95,83.99-302.95,83.99s-217.16,6.52-302.95-83.99c-36.83-38.86-60.71-76.68-72.54-130.24a551.66,551.66,0,0,1-12.45-106.74V835h213.97v502.94s-4.23,85.76,41.99,131.99S1404,1511.92,1404,1511.92s85.75,4.24,131.98-41.99,41.99-131.99,41.99-131.99V835h213.97v522.94A551.66,551.66,0,0,1,1779.49,1464.68Z"/>
  </g>
  <g id="F">
    <path id="soft_f" data-name="soft f" class="cls-1" d="M1.031,952s0-53,32-85,85-32,85-32H700v166.99H266.019s-27.3.31-39,12-12,39-12,39v116H580v166.99H215.022V1669H1Z"/>
  </g>
  <path id="c-3" data-name="c" class="cls-2" d="M2791.28,255.936c-18.17-24.165-48.16-37.632-84.17-37.632-50.93,0-88.31,41.5-88.31,98.727,0,56.315,37.13,98.727,88.31,98.727,33.51,0,63.72-15.086,82.63-39.238l83.77,78.172c-38.03,46.516-96.71,75.123-167.01,75.123-128.32,0-221.4-91.41-221.4-212.784,0-123.335,93.72-212.785,221.4-212.785,73.98,0,130.64,29.131,167.02,73.905Z"/>
  <g id="i">
    <path id="l-2" data-name="l" class="cls-2" d="M2294.98,128.774H2425v390H2294.98v-390Z"/>
    <path id="i_dot" data-name="i dot" class="cls-3" d="M2294.98,0H2425V88.3H2294.98V0Z"/>
  </g>
  <path id="n" class="cls-2" d="M2081.55,518.777V276.457s-0.16-33.552-22.08-47.972c-20.46-13.454-76.34-24.381-122.66,27.261V518.777h-128.8V114.057h128.8V161.54c13.02-14.058,60.57-58.52,141.06-58.52,95.6,0,120.2,63.962,120.2,63.962s13.5,29.128,13.5,75.033V518.777H2081.55Z"/>
  <path id="o" class="cls-2" d="M1525.28,529.815c-128.32,0-221.4-91.41-221.4-212.784,0-123.335,93.72-212.785,221.4-212.785,129.98,0,221.4,91.064,221.4,212.785C1746.68,438.6,1650.82,529.815,1525.28,529.815Zm0.61-311.511c-50.92,0-88.31,41.5-88.31,98.727,0,56.315,37.13,98.727,88.31,98.727,50.08,0,88.32-42.321,88.32-98.727C1614.21,260.555,1577.74,218.3,1525.89,218.3Z"/>
  <path id="r" class="cls-2" d="M1211.88,231.794c-35.12,11.058-49.06,30.661-49.06,30.661V518.777H1034.03V114.057h128.79v51.51c58.1-63.865,126.34-61.321,126.34-61.321V228.115S1247,220.737,1211.88,231.794Z"/>
  <path id="t-2" data-name="t" class="cls-2" d="M885.244,1.227L755.881,66.378V114.32h-66.53V226.184l66.53,1.229v180.7s-0.686,59.22,30.8,89.737,91.837,31.961,96.1,31.961,54.641-2.639,75.154-12.292V405.658s-17.982,9.835-36.961,9.835-35.729-16.219-35.729-38.108V227.413H967.79V114.32H885.244V1.227Z"/>
  <path id="l-3" data-name="l" class="cls-2" d="M500.454,0H629.248V518.777H500.454V0Z"/>
  <path id="E-3" data-name="E" class="cls-2" d="M0,0h424.4V121.416H144.739v76.038h260.04V305.38H144.739v91.981H424.405V518.777H0V0Z"/>
</svg>
